PathFileType	4	(X/Y/Z)	/Users/niels/Desktop/University/Third Semester/Perception and Action/Exam/Gymnastics Motion Tracking/Code for Gym Tracking/Analyzed Data/Webcam_Backflip/id2001_1_baseline_Sports2D/id2001_1_baseline_Sports2D_px_person00.trc
DataRate	CameraRate	NumFrames	NumMarkers	Units	OrigDataRate	OrigDataStartFrame	OrigNumFrames
29.884169884169886	29.884169884169886	11	22	m	29.884169884169886	97	259
Frame#	Time	Hip			RHip			RKnee			RAnkle			RBigToe			RSmallToe			RHeel			LHip			LKnee			LAnkle			LBigToe			LSmallToe			LHeel			Neck			Head			Nose			RShoulder			RElbow			RWrist			LShoulder			LElbow			LWrist		
		X1	Y1	Z1	X2	Y2	Z2	X3	Y3	Z3	X4	Y4	Z4	X5	Y5	Z5	X6	Y6	Z6	X7	Y7	Z7	X8	Y8	Z8	X9	Y9	Z9	X10	Y10	Z10	X11	Y11	Z11	X12	Y12	Z12	X13	Y13	Z13	X14	Y14	Z14	X15	Y15	Z15	X16	Y16	Z16	X17	Y17	Z17	X18	Y18	Z18	X19	Y19	Z19	X20	Y20	Z20	X21	Y21	Z21	X22	Y22	Z22
97	3.2458656330749354	0.9995293837729137	-0.7045825131981649	0.0	0.9844902783453053	-0.7065416257116524	0.0	1.1192746568580996	-1.0537842575497554	0.0	1.2595116820760768	-1.0957739113513658	0.0	1.6189346088878207	-1.0752251786811187	0.0	1.444512889645734	-1.1019441321702228	0.0	1.257044347143587	-1.0902289529009486	0.0	1.0200730697012923	-0.7102427870193189	0.0	1.037043696882773	-1.0495998285550234	0.0	1.3700632782640643	-1.046604805863559	0.0	1.51120840486771	-1.0551689454695725	0.0	1.5139732532258552	-1.0358252635364034	0.0	0.614869140672358	-0.9392568359461649	0.0	1.0186345626709752	-0.2628584529689146	0.0	1.0686207155745102	-0.07430406940717595	0.0	1.0901004558414482	-0.1771207708993929	0.0	0.9809744637681178	-0.30269470672357873	0.0	1.1313790217119908	-0.36360725148335976	0.0	1.363886959935606	-0.29591916001063756	0.0	1.0276389769409493	-0.3288232095337421	0.0	1.0414570062646737	-0.5393012038291692	0.0	1.1409797179067995	-0.5811401526131749	0.0
98	3.279328165374677	1.0022931630438572	-0.7040186415755245	0.0	0.9837273608023172	-0.7051550205759667	0.0	1.0820784901629712	-1.0557017869760146	0.0	1.2599885922805978	-1.0956140776788057	0.0	1.6189871813734948	-1.0752416346866125	0.0	1.4444870895568407	-1.1019641231922181	0.0	1.2573108886137925	-1.0902765890890023	0.0	1.0328977829100436	-0.7085151915502511	0.0	1.0473920597035657	-1.0471431559002569	0.0	1.3700282470445575	-1.0466629695522343	0.0	1.5111906340933086	-1.0551766514759184	0.0	1.5139552670195078	-1.0358250041765733	0.0	0.6148691406388864	-0.9392568359399733	0.0	1.0205099698148306	-0.26088126067720185	0.0	1.0720543510908196	-0.07314150104819193	0.0	1.0937248723082	-0.1764702707845031	0.0	0.986393367489292	-0.3011834615772734	0.0	1.1613300291801412	-0.337431800025465	0.0	1.3741442089525637	-0.24407287007246456	0.0	1.0305098112326558	-0.3238751994542683	0.0	1.0431066362731771	-0.5346724719926286	0.0	1.145721341854588	-0.5753314444022906	0.0
99	3.312790697674419	1.003727799831616	-0.7048302251820852	0.0	0.9830154927666721	-0.7050634223702896	0.0	1.0487539415811733	-1.0551167073173209	0.0	1.2602733195183655	-1.0955222251444183	0.0	1.6190310834073331	-1.07525579015293	0.0	1.4444696463623956	-1.1019877210367053	0.0	1.2574044224242986	-1.0903124644774134	0.0	1.041287427858895	-0.7088244966922378	0.0	1.0526421994844668	-1.0451847432910724	0.0	1.3700071551857622	-1.0467043690636322	0.0	1.5111624268561707	-1.0551774897521602	0.0	1.5139267115439703	-1.035824158193435	0.0	0.6148691406213225	-0.93925683593675	0.0	1.022774694910292	-0.2592158592485183	0.0	1.0754837629241418	-0.07187348952873213	0.0	1.0971651044088229	-0.1758733996851527	0.0	0.9914931900334869	-0.29893559260496244	0.0	1.186515957577477	-0.31164592755324133	0.0	1.3773637182152825	-0.19562926388276572	0.0	1.0369115868736767	-0.31954766902725346	0.0	1.0477532318011578	-0.530459234798939	0.0	1.1538773431660856	-0.5666101654526283	0.0
100	3.34625322997416	1.0037781415905	-0.7067360986109622	0.0	0.9824303344044713	-0.7063291060902488	0.0	1.0205252705835453	-1.0539737014086044	0.0	1.260401887826122	-1.0954832190786166	0.0	1.6190595605301734	-1.0752651765231522	0.0	1.444460359439751	-1.102006440598067	0.0	1.2574013009848262	-1.0903338050707336	0.0	1.0457676108927383	-0.7110024490248021	0.0	1.0506570966337638	-1.044122791251431	0.0	1.3700023067631555	-1.0467274255748251	0.0	1.5111375223339365	-1.0551752668462973	0.0	1.513901497926914	-1.0358232983153552	0.0	0.6148691406150643	-0.9392568359356218	0.0	1.0253895957032577	-0.2579348825370086	0.0	1.0789196141449393	-0.07047967787511854	0.0	1.100403167928461	-0.17542984325762748	0.0	0.9960815022239877	-0.2956823270288623	0.0	1.2053686697204078	-0.28707551846097235	0.0	1.374740633033022	-0.15234161228365578	0.0	1.0461048327437594	-0.31670628023069114	0.0	1.0546787520242031	-0.5280324836357498	0.0	1.164226262917727	-0.5553332766458697	0.0
101	3.379715762273902	1.002569214587311	-0.7091652582802351	0.0	0.9820139478328791	-0.708515657250095	0.0	0.9980444275132686	-1.0533359139107203	0.0	1.2604313031009529	-1.0954765527755392	0.0	1.619073986389611	-1.0752700615826953	0.0	1.4444569452281972	-1.102018095476752	0.0	1.2573591223230256	-1.090343387556117	0.0	1.0473282288350674	-0.7143682002165413	0.0	1.043234820756493	-1.0441135402908037	0.0	1.370011094083487	-1.046736393318476	0.0	1.511120700938394	-1.0551723800838662	0.0	1.513884467000157	-1.0358226647146669	0.0	0.6148691406151616	-0.9392568359356629	0.0	1.0280802696801246	-0.2570684560367066	0.0	1.0824806441992902	-0.06910363155629826	0.0	1.103573073229254	-0.17524171201275182	0.0	1.0003162471396272	-0.29129185134563407	0.0	1.2178366204314688	-0.2643898771004106	0.0	1.36770285768723	-0.11537296439313732	0.0	1.0561711436121237	-0.31565378353531126	0.0	1.0622608681559578	-0.5277340725062357	0.0	1.1752957704269846	-0.5421588462909319	0.0
102	3.4131782945736435	1.0002876160214162	-0.7116331751967823	0.0	0.9817481555847878	-0.7110785549184797	0.0	0.9814935861968329	-1.0535522220300648	0.0	1.2604118513538267	-1.0954850350910275	0.0	1.6190787192638825	-1.0752717704257557	0.0	1.4444568764788268	-1.1020236893201147	0.0	1.2573122014796174	-1.0903455307325471	0.0	1.0463580791252085	-0.7181527863270272	0.0	1.0334794727748227	-1.0451597474105738	0.0	1.3700270827248215	-1.046736918092517	0.0	1.5111117550348705	-1.0551699982077547	0.0	1.5138754092043478	-1.035822295480479	0.0	0.6148691406178565	-0.9392568359361755	0.0	1.0305234291299217	-0.25647890966985915	0.0	1.0861080733312398	-0.06789233830833989	0.0	1.1068228416248254	-0.17528456061557277	0.0	1.0044796722804634	-0.2858295820416351	0.0	1.2250212808082188	-0.24391440827153585	0.0	1.3579787271280812	-0.08516161861473204	0.0	1.0652084629408687	-0.3159622846910925	0.0	1.0696563407818893	-0.5287043425627883	0.0	1.1866240188131292	-0.5275237191989018	0.0
103	3.4466408268733852	0.9972598112231081	-0.713835768683628	0.0	0.9814532944082006	-0.7135362870411373	0.0	0.9703053123327392	-1.0545581925466423	0.0	1.2603774765821336	-1.0954974820910275	0.0	1.6190781735345776	-1.0752717070561024	0.0	1.4444582072573373	-1.102025271815329	0.0	1.2572759833419869	-1.0903440246627047	0.0	1.0431148927152991	-0.7217425517389683	0.0	1.024084710160001	-1.0470995891465429	0.0	1.3700390291686553	-1.0467339578128978	0.0	1.5111084739438596	-1.0551684674375466	0.0	1.5138720867141242	-1.0358221350043781	0.0	0.6148691406208964	-0.9392568359367445	0.0	1.0325929918036818	-0.2558690698866928	0.0	1.0894903967969074	-0.06686637467865436	0.0	1.1101740303471825	-0.17534371203982566	0.0	1.0086094574255369	-0.2796779160853302	0.0	1.2285864701394669	-0.22576985852306639	0.0	1.3476119952549435	-0.061492781751227424	0.0	1.0723836459367087	-0.3169164444478552	0.0	1.077212464669904	-0.5295773526384167	0.0	1.1988115323224415	-0.511803968214724	0.0
104	3.4801033591731265	0.9939732809625148	-0.7156208906671481	0.0	0.9807297178375878	-0.7155274371701709	0.0	0.9633489523872741	-1.0561000755399472	0.0	1.2603462181085345	-1.0955082072975966	0.0	1.6190755957076173	-1.0752709292003375	0.0	1.4444597566655337	-1.1020247713899582	0.0	1.2572539558385896	-1.0903414184776843	0.0	1.0384465725908683	-0.7247636663294306	0.0	1.0171623699331016	-1.0495481042235573	0.0	1.370029052453052	-1.0467312527627899	0.0	1.5111084166205024	-1.0551677010168266	0.0	1.513872028245164	-1.0358221040037865	0.0	0.6148691406232585	-0.9392568359371832	0.0	1.034396620902348	-0.25501413540581847	0.0	1.0923682578761191	-0.06597741105133971	0.0	1.1135452885643757	-0.17518678670440696	0.0	1.0124198991332978	-0.27352670279660674	0.0	1.2302883749335054	-0.21022082948215146	0.0	1.3386905847868407	-0.04374605262920705	0.0	1.0777640898921972	-0.3181429999448498	0.0	1.0855285102829468	-0.5294796315244386	0.0	1.212499583640206	-0.49584880667651243	0.0
105	3.5135658914728682	0.990961394522567	-0.7170138815356722	0.0	0.9790776448860329	-0.7168963435510654	0.0	0.9594775990843879	-1.0578805750236517	0.0	1.260324682314715	-1.0955153279292724	0.0	1.6190728743766551	-1.0752700662114807	0.0	1.4444609782737232	-1.1020235460636625	0.0	1.2572437299489658	-1.0903390612060646	0.0	1.0336724605870495	-0.7271407667800945	0.0	1.0141767182290686	-1.0520358189035548	0.0	1.3699721040284076	-1.0467315178539098	0.0	1.5111097055780398	-1.0551674568366058	0.0	1.5138733329455565	-1.0358221348155057	0.0	0.6148691406247034	-0.9392568359374498	0.0	1.036125357569239	-0.25392235698235294	0.0	1.0947796415017232	-0.06522190734459492	0.0	1.11680999464121	-0.17476855084361495	0.0	1.0154346167048582	-0.26812573788074684	0.0	1.231462901742839	-0.19797340925103965	0.0	1.3329539823193544	-0.03135499593991163	0.0	1.081810815564398	-0.3198710328645772	0.0	1.0948641463524955	-0.5285362692090262	0.0	1.2279439738356142	-0.48102880648319246	0.0
106	3.54702842377261	0.9886587160337291	-0.7181608723211451	0.0	0.976175497278384	-0.7176449087393791	0.0	0.9577240653128001	-1.0596520942262375	0.0	1.2603129729524647	-1.09551903938622	0.0	1.6190708283193134	-1.0752694007572092	0.0	1.4444617350458961	-1.1020223519522914	0.0	1.2572411352355959	-1.0903374424514716	0.0	1.0299931845359216	-0.7290307870077426	0.0	1.0155144062502006	-1.0542193980894106	0.0	1.3698399361266207	-1.0467366802939009	0.0	1.5111112025583258	-1.0551674939541786	0.0	1.513874848328747	-1.0358221828297938	0.0	0.6148691406253799	-0.9392568359375734	0.0	1.0378973251340589	-0.2527656610810016	0.0	1.0969428739490719	-0.06463157741070348	0.0	1.1197744766547006	-0.17421020974944545	0.0	1.0171772517206992	-0.26403807155051773	0.0	1.2327038964118617	-0.19016097837290868	0.0	1.3316015726671515	-0.024165239639386663	0.0	1.0850760395389498	-0.32271809772784693	0.0	1.105146039299339	-0.5274952368633479	0.0	1.2452245665175756	-0.46892411502296116	0.0
107	3.5804909560723517	0.9872877767854014	-0.7191899238036904	0.0	0.9721150433661869	-0.7178107047166296	0.0	0.9573508277820416	-1.0612277783668203	0.0	1.2603084801376756	-1.0955203421949253	0.0	1.6190696142410104	-1.075268996093967	0.0	1.4444620959758978	-1.1020214926956933	0.0	1.2572423910826802	-1.0903365649566255	0.0	1.0280371521383636	-0.7306237799521712	0.0	1.0201942774302577	-1.0559217832376881	0.0	1.369613636371959	-1.0467476628885328	0.0	1.5111123815798564	-1.0551676369046055	0.0	1.5138760417997805	-1.0358222249900617	0.0	0.6148691406255566	-0.9392568359376046	0.0	1.0396676184291715	-0.25169215824135355	0.0	1.099000467256922	-0.06418058090493362	0.0	1.122179831483908	-0.17365297093789228	0.0	1.0173142978052838	-0.2615403020616519	0.0	1.234032515632225	-0.18796713317919156	0.0	1.3353132541686008	-0.022565035895124336	0.0	1.0878912799800937	-0.32718797469371724	0.0	1.1160756877922702	-0.527020909234096	0.0	1.2642836629080165	-0.46109115599119643	0.0
